<?xml version="1.0" encoding="UTF-8" standalone="no"?>
<svg
   xmlns:dc="http://purl.org/dc/elements/1.1/"
   xmlns:cc="http://creativecommons.org/ns#"
   xmlns:rdf="http://www.w3.org/1999/02/22-rdf-syntax-ns#"
   xmlns:svg="http://www.w3.org/2000/svg"
   xmlns="http://www.w3.org/2000/svg"
   xmlns:sodipodi="http://sodipodi.sourceforge.net/DTD/sodipodi-0.dtd"
   xmlns:inkscape="http://www.inkscape.org/namespaces/inkscape"
   width="24"
   height="24"
   viewBox="0 0 24 24"
   version="1.1"
   id="svg6"
   sodipodi:docname="clear-icon.svg"
   inkscape:version="0.92.1 r15371">
  <metadata
     id="metadata12">
    <rdf:RDF>
      <cc:Work
         rdf:about="">
        <dc:format>image/svg+xml</dc:format>
        <dc:type
           rdf:resource="http://purl.org/dc/dcmitype/StillImage" />
      </cc:Work>
    </rdf:RDF>
  </metadata>
  <defs
     id="defs10" />
  <sodipodi:namedview
     pagecolor="#ffffff"
     bordercolor="#666666"
     borderopacity="1"
     objecttolerance="10"
     gridtolerance="10"
     guidetolerance="10"
     inkscape:pageopacity="0"
     inkscape:pageshadow="2"
     inkscape:window-width="1920"
     inkscape:window-height="1020"
     id="namedview8"
     showgrid="false"
     inkscape:zoom="9.8333333"
     inkscape:cx="12"
     inkscape:cy="12"
     inkscape:window-x="0"
     inkscape:window-y="32"
     inkscape:window-maximized="1"
     inkscape:current-layer="svg6" />
  <path
     d="M19 6.41L17.59 5 12 10.59 6.41 5 5 6.41 10.59 12 5 17.59 6.41 19 12 13.41 17.59 19 19 17.59 13.41 12z"
     id="path2" />
  <path
     d="M0 0h24v24H0z"
     fill="none"
     id="path4" />
  <path
     style="fill:#ffffff;stroke-width:0.10169491"
     d="M 5.7141368,18.232771 5.057878,17.570627 7.8519743,14.775144 10.646071,11.979661 7.8509715,9.183175 5.0558723,6.3866889 5.7168892,5.725672 6.3779061,5.064655 l 2.7951114,2.7964982 2.7951115,2.7964978 2.798994,-2.7976548 2.798994,-2.797655 0.683812,0.6890924 0.683812,0.6890925 -2.795696,2.7943098 -2.795696,2.7943101 2.797761,2.7991 2.797761,2.7991 -0.663284,0.657389 -0.663282,0.657387 -2.795483,-2.794096 -2.795483,-2.794097 -2.7718676,2.770493 c -1.5245272,1.523772 -2.7957645,2.770493 -2.8249717,2.770493 -0.029207,0 -0.3484206,-0.297965 -0.7093629,-0.662144 z"
     id="path14"
     inkscape:connector-curvature="0" />
</svg>
